<?xml version="1.0"?>
<svg width="512" height="512"  xmlns="http://www.w3.org/2000/svg" xmlns:svg="http://www.w3.org/2000/svg">
 <!--! Font Awesome Pro 6.3.0 by @fontawesome - https://fontawesome.com License - https://fontawesome.com/license (Commercial License) Copyright 2023 Fonticons, Inc. -->
 <g class="layer">
  <title>Layer 1</title>
  <path d="m186,32c0,-17.7 14.3,-32 32,-32l32,0c17.7,0 32,14.3 32,32l0,140.9l122,-70.4c15.3,-8.8 34.9,-3.6 43.7,11.7l16,27.7c8.8,15.3 3.6,34.9 -11.7,43.7l-122,70.4l122,70.4c15.3,8.8 20.5,28.4 11.7,43.7l-16,27.7c-8.8,15.3 -28.4,20.6 -43.7,11.7l-122,-70.4l0,140.9c0,17.7 -14.3,32 -32,32l-32,0c-17.7,0 -32,-14.3 -32,-32l0,-140.9l-122,70.5c-15.3,8.8 -34.9,3.6 -43.7,-11.7l-16,-27.7c-8.8,-15.4 -3.6,-34.9 11.7,-43.8l122,-70.4l-122,-70.4c-15.3,-8.9 -20.5,-28.4 -11.7,-43.7l16,-27.7c8.8,-15.4 28.4,-20.6 43.7,-11.8l122,70.4l0,-140.8z" fill="#ba622f" id="svg_1"/>
 </g>
</svg>